<?xml version="1.0" standalone="no"?>
<!DOCTYPE svg PUBLIC "-//W3C//DTD SVG 1.1//EN" "http://www.w3.org/Graphics/SVG/1.1/DTD/svg11.dtd">
<svg xmlns="http://www.w3.org/2000/svg" xmlns:xlink="http://www.w3.org/1999/xlink" version="1.1" id="body_1" width="793" height="1123">

<defs>
    <clipPath  id="1">

    <path id=""  clip-rule="evenodd" transform="matrix(1 0 0 1 0 0)"  d="M0 842L0 0L0 0L595 0L595 0L595 842L595 842L0 842z" />    </clipPath>
    <clipPath  id="2">

    <path id=""  clip-rule="evenodd" transform="matrix(1 0 0 1 0 0)"  d="M90 0L595 0L595 0L595 842L595 842L90 842z" />    </clipPath>
    <clipPath  id="3">

    <path id=""  clip-rule="evenodd" transform="matrix(1 0 0 1 0 0)"  d="M94.67971 76.94379L497.67972 76.94379L497.67972 76.94379L497.67972 141.42383L497.67972 141.42383L94.67971 141.42383z" />    </clipPath>
    <clipPath  id="4">

    <path id=""  clip-rule="evenodd" transform="matrix(1 0 0 1 0 0)"  d="M94.67971 76.94379L497.67972 76.94379L497.67972 76.94379L497.67972 141.42383L497.67972 141.42383L94.67971 141.42383z" />    </clipPath>
</defs>

<g transform="matrix(1.3333 0 0 1.3333 0 0)">
	<g clip-path="url(#1)" >
		<g clip-path="url(#2)" >
			<g clip-path="url(#3)" >
				<g clip-path="url(#4)" >
    <path id=""  transform="matrix(1 0 0 -1 0 842)"  d="M469.8813 728.01245C 469.8813 729.63196 469.82434 731.01935 469.77707 732.1639L469.77707 732.1639L473.1945 732.1639L473.1945 732.1639L473.38043 730.4068L473.38043 730.4068L473.461 730.4068C 474.02524 731.22894 475.1697 732.45404 477.41043 732.45404C 479.09442 732.45404 480.42487 731.5997 480.98904 730.2456L480.98904 730.2456L481.04602 730.2456C 481.5296 730.90656 482.11853 731.4471 482.73 731.8179C 483.44684 732.2445 484.25284 732.45514 485.21246 732.45514C 487.7186 732.45514 489.6208 730.69806 489.6208 726.8131L489.6208 726.8131L489.6208 719.1561L489.6208 719.1561L485.67136 719.1561L485.67136 719.1561L485.67136 726.2328C 485.67136 728.11884 485.05884 729.215 483.74448 729.215C 482.80954 729.215 482.14005 728.57776 481.87457 727.80396C 481.77036 727.5138 481.71338 727.08716 481.71338 726.7648L481.71338 726.7648L481.71338 719.1561L481.71338 719.1561L477.76398 719.1561L477.76398 719.1561L477.76398 726.4424C 477.76398 728.0941 477.17508 729.20746 475.89404 729.20746C 474.85483 729.20746 474.2423 728.409 474.0005 727.74054C 473.86295 727.41815 473.8393 727.0474 473.8393 726.73254L473.8393 726.73254L473.8393 719.1486L473.8393 719.1486L469.89 719.1486L469.89 719.1486L469.89 728.0146z" stroke="none" fill="#262A36" fill-rule="nonzero" />
    <path id=""  transform="matrix(1 0 0 -1 0 842)"  d="M457.92026 725.66644C 457.92026 723.4344 458.8552 721.7579 460.58755 721.7579C 462.16733 721.7579 463.17538 723.33014 463.17538 725.66644C 463.17538 727.60944 462.42526 729.575 460.58755 729.575C 458.6371 729.575 457.92026 727.5837 457.92026 725.66644zM467.37408 725.804C 467.37408 721.0411 463.98032 718.86487 460.48227 718.86487C 456.66183 718.86487 453.72797 721.36346 453.72797 725.5708C 453.72797 729.7706 456.50922 732.46265 460.69934 732.46265C 464.69708 732.45514 467.37305 729.7136 467.37305 725.8051z" stroke="none" fill="#262A36" fill-rule="nonzero" />
    <path id=""  transform="matrix(1 0 0 -1 0 842)"  d="M452.52005 719.4689C 451.80325 719.1465 450.44058 718.87994 448.88446 718.87994C 444.66104 718.87994 441.969 721.4355 441.969 725.52997C 441.969 729.3343 444.58902 732.44543 449.44867 732.44543C 450.52118 732.44543 451.68933 732.2595 452.5437 731.93823L452.5437 731.93823L451.8989 728.9313C 451.4153 729.14087 450.69745 729.3268 449.62598 729.3268C 447.48953 729.3268 446.1043 727.81146 446.12793 725.68365C 446.12793 723.2893 447.73242 722.0405 449.70657 722.0405C 450.66626 722.0405 451.4153 722.2017 452.02786 722.43604L452.02786 722.43604L452.52005 719.4699z" stroke="none" fill="#262A36" fill-rule="nonzero" />
    <path id=""  transform="matrix(1 0 0 -1 0 842)"  d="M435.48016 721.3065C 435.48016 722.7412 436.47208 723.7804 437.88202 723.7804C 439.3006 723.7804 440.26028 722.7724 440.26028 721.3065C 440.26028 719.8955 439.3006 718.8563 437.85837 718.8563C 436.47208 718.8563 435.48016 719.8955 435.48016 721.3065z" stroke="none" fill="#262A36" fill-rule="nonzero" />
    <path id=""  transform="matrix(1 0 0 -1 0 842)"  d="M415.91046 725.5461C 417.5461 724.7079 420.0533 723.87823 422.64108 723.87823C 425.42984 723.87823 426.9043 725.0303 426.9043 726.78735C 426.9043 728.4552 425.63083 729.4149 422.40683 730.568C 417.9491 732.12305 415.03998 734.5894 415.03998 738.4905C 415.03998 743.06854 418.86044 746.5741 425.1956 746.5741C 428.22617 746.5741 430.45068 745.9368 432.0466 745.22003L432.0466 745.22003L430.6925 740.3195C 429.61246 740.8354 427.70172 741.593 425.07523 741.593C 422.44873 741.593 421.1742 740.40015 421.1742 739.00525C 421.1742 737.2965 422.68945 736.5389 426.15527 735.22455C 430.89456 733.475 433.12665 731.0011 433.12665 727.2204C 433.12665 722.72296 429.66083 718.89496 422.29398 718.89496C 419.2312 718.89496 416.20062 719.6935 414.68536 720.53064L414.68536 720.53064L415.91046 725.54395z" stroke="none" fill="#3075F4" fill-rule="nonzero" />
    <path id=""  transform="matrix(1 0 0 -1 0 842)"  d="M410.9627 720.5328C 409.09277 719.8955 405.5464 719.0175 401.99997 719.0175C 397.0995 719.0175 393.5606 720.2501 391.08673 722.6445C 388.6204 724.95715 387.2663 728.4563 387.3061 732.4046C 387.34692 741.3265 393.83466 746.4204 402.63617 746.4204C 406.102 746.4204 408.7704 745.7434 410.08362 745.1072L410.08362 745.1072L408.81015 740.24646C 407.33463 740.8837 405.50555 741.3985 402.55557 741.3985C 397.5025 741.3985 393.67346 738.5291 393.67346 732.71735C 393.67346 727.18066 397.13928 723.91583 402.11282 723.91583C 403.50775 723.91583 404.61896 724.077 405.1036 724.3113L405.1036 724.3113L405.1036 729.9286L405.1036 729.9286L400.95972 729.9286L400.95972 729.9286L400.95972 734.67004L400.95972 734.67004L410.9541 734.67004L410.9541 734.67004L410.9541 720.5328z" stroke="none" fill="#3075F4" fill-rule="nonzero" />
    <path id=""  transform="matrix(1 0 0 -1 0 842)"  d="M376.46484 730.7292L374.78836 736.42816C 374.31332 738.02405 373.82867 740.01434 373.43427 741.60266L373.43427 741.60266L373.35367 741.60266C 372.9582 740.00684 372.5552 737.9757 372.12103 736.42816L372.12103 736.42816L370.52515 730.7292L370.52515 730.7292L376.46484 730.7292zM369.65466 726.18335L367.745 719.29156L367.745 719.29156L361.4582 719.29156L361.4582 719.29156L369.66327 746.13135L369.66327 746.13135L377.62653 746.13135L377.62653 746.13135L385.952 719.29156L385.952 719.29156L379.42337 719.29156L379.42337 719.29156L377.35248 726.18335L377.35248 726.18335L369.65466 726.18335z" stroke="none" fill="#3075F4" fill-rule="nonzero" />
    <path id=""  transform="matrix(1 0 0 -1 0 842)"  d="M342.80734 746.13995L348.9007 746.13995L348.9007 746.13995L348.9007 724.39404L348.9007 724.39404L359.57214 724.39404L359.57214 724.39404L359.57214 719.3001L359.57214 719.3001L342.80734 719.3001L342.80734 719.3001L342.80734 746.13995z" stroke="none" fill="#3075F4" fill-rule="nonzero" />
    <path id=""  transform="matrix(1 0 0 -1 0 842)"  d="M321.803 746.13995L338.21317 746.13995L338.21317 746.13995L338.21317 741.1589L338.21317 741.1589L327.89636 741.1589L327.89636 741.1589L327.89636 735.02466L327.89636 735.02466L337.5361 735.02466L337.5361 735.02466L337.5361 730.0833L337.5361 730.0833L327.89636 730.0833L327.89636 730.0833L327.89636 719.29047L327.89636 719.29047L321.803 719.29047L321.803 719.29047L321.803 746.13995z" stroke="none" fill="#3075F4" fill-rule="nonzero" />
    <path id=""  transform="matrix(1 0 0 -1 0 842)"  d="M304.70718 719.2991L304.70718 730.2854L304.70718 730.2854L296.2281 746.13135L296.2281 746.13135L303.15967 746.13135L303.15967 746.13135L305.90866 739.68335C 306.74692 737.7328 307.3036 736.29816 307.97955 734.5497L307.97955 734.5497L308.06015 734.5497C 308.6566 736.22614 309.2928 737.7737 310.09128 739.68335L310.09128 739.68335L312.79944 746.13135L312.79944 746.13135L319.6096 746.13135L319.6096 746.13135L310.7683 730.4788L310.7683 730.4788L310.7683 719.29156L310.7683 719.29156L304.70718 719.29156z" stroke="none" fill="#262A36" fill-rule="nonzero" />
    <path id=""  transform="matrix(1 0 0 -1 0 842)"  d="M281.63947 734.22723L284.02524 734.22723C 287.0558 734.22723 288.84512 735.74255 288.84512 738.08746C 288.84512 740.55383 287.16864 741.79504 284.3874 741.8273C 282.9119 741.8273 282.0747 741.7059 281.6384 741.62524L281.6384 741.62524L281.6384 734.2262zM275.6267 745.7767C 277.57724 746.0991 280.48743 746.3323 283.71036 746.3323C 287.69202 746.3323 290.48077 745.73584 292.3915 744.2206C 293.9874 742.9471 294.85788 741.07715 294.85788 738.6033C 294.85788 735.17725 292.42377 732.83234 290.1186 731.9941L290.1186 731.9941L290.1186 731.8727C 291.98853 731.115 293.0277 729.3257 293.70477 726.85077C 294.543 723.8202 295.38126 720.32214 295.89706 719.28186L295.89706 719.28186L289.68228 719.28186C 289.24704 720.0395 288.60223 722.2318 287.81238 725.53644C 287.09555 728.88184 285.94244 729.7996 283.47607 729.84045L283.47607 729.84045L281.647 729.84045L281.647 729.84045L281.647 719.28937L281.647 719.28937L275.63425 719.28937L275.63425 719.28937L275.63425 745.7767z" stroke="none" fill="#262A36" fill-rule="nonzero" />
    <path id=""  transform="matrix(1 0 0 -1 0 842)"  d="M258.96722 741.0374L251.7616 741.0374L251.7616 741.0374L251.7616 746.13135L251.7616 746.13135L272.38766 746.13135L272.38766 746.13135L272.38766 741.0374L272.38766 741.0374L265.0606 741.0374L265.0606 741.0374L265.0606 719.29156L265.0606 719.29156L258.96722 719.29156L258.96722 719.29156L258.96722 741.0374z" stroke="none" fill="#262A36" fill-rule="nonzero" />
    <path id=""  transform="matrix(1 0 0 -1 0 842)"  d="M226.29953 719.2991L226.29953 746.13885L226.29953 746.13885L233.38373 746.13885L233.38373 746.13885L238.96124 736.30566C 240.62009 733.33966 242.08197 730.26776 243.33728 727.10974L243.33728 727.10974L243.45871 727.10974C 243.06326 730.6561 242.9429 734.27563 242.9429 738.297L242.9429 738.297L242.9429 746.13885L242.9429 746.13885L248.52039 746.13885L248.52039 746.13885L248.52039 719.2991L248.52039 719.2991L242.14548 719.2991L242.14548 719.2991L236.41428 729.6567C 234.81839 732.52606 233.06885 735.9919 231.75562 739.13525L231.75562 739.13525L231.63416 739.0944C 231.79535 735.54803 231.87598 731.76733 231.87598 727.3838L231.87598 727.3838L231.87598 719.3001L231.87598 719.3001L226.29843 719.3001z" stroke="none" fill="#262A36" fill-rule="nonzero" />
    <path id=""  transform="matrix(1 0 0 -1 0 842)"  d="M205.18231 746.13995L205.18231 730.68835C 205.18231 726.06946 206.93188 723.71704 210.04303 723.71704C 213.22726 723.71704 214.98434 725.9491 214.98434 730.68835L214.98434 730.68835L214.98434 746.13995L214.98434 746.13995L221.03796 746.13995L221.03796 746.13995L221.03796 731.0914C 221.03796 722.8057 216.85428 718.86383 209.84207 718.86383C 203.07169 718.86383 199.09003 722.60364 199.09003 731.172L199.09003 731.172L199.09003 746.13995L199.09003 746.13995L205.1834 746.13995z" stroke="none" fill="#262A36" fill-rule="nonzero" />
    <path id=""  transform="matrix(1 0 0 -1 0 842)"  d="M175.73862 732.6389C 175.73862 727.3838 178.20496 723.67615 182.26721 723.67615C 186.37029 723.67615 188.7238 727.5772 188.7238 732.7926C 188.7238 737.6124 186.41112 741.7553 182.23495 741.7553C 178.12436 741.7553 175.73862 737.85425 175.73862 732.6389zM195.13097 732.9935C 195.13097 724.192 189.79526 718.8563 181.95233 718.8563C 173.98904 718.8563 169.33037 724.8691 169.33037 732.51855C 169.33037 740.56244 174.46405 746.5752 182.38757 746.5752C 190.63242 746.5752 195.13097 740.4012 195.13097 732.9935z" stroke="none" fill="#262A36" fill-rule="nonzero" />
    <path id=""  transform="matrix(1 0 0 -1 0 842)"  d="M167.7592 720.0567C 166.64693 719.5011 164.1322 718.90466 160.86737 718.90466C 151.58977 718.90466 146.81073 724.6756 146.81073 732.32404C 146.81073 741.48016 153.33932 746.5827 161.4638 746.5827C 164.60721 746.5827 167.00049 745.94543 168.073 745.38983L168.073 745.38983L166.84036 740.56995C 165.60773 741.08575 163.89041 741.5694 161.74644 741.5694C 156.92657 741.5694 153.18672 738.6603 153.18672 732.68726C 153.18672 727.31067 156.37096 723.9266 161.7873 723.9266C 163.61636 723.9266 165.64749 724.322 166.84897 724.80566L166.84897 724.80566L167.7592 720.05884z" stroke="none" fill="#262A36" fill-rule="nonzero" />
    <path id=""  transform="matrix(1 0 0 -1 0 842)"  d="M121.88276 715.1487L121.88276 716.6715C 119.39276 717.48505 116.869446 718.01697 114.59653 719.0895C 103.32112 724.39294 99.30724 738.57104 105.98092 749.0802C 107.50372 751.4821 109.422005 753.4724 111.73576 755.11664C 112.84804 755.9065 113.89584 755.8818 114.53312 755.0199C 115.170395 754.1655 114.93612 753.093 113.83996 752.31177C 110.510635 749.94965 108.230194 746.84705 106.99756 742.94604C 103.821915 732.9355 110.79435 722.00616 121.231514 720.6435C 125.422714 720.0954 129.30011 720.89386 132.90991 723.0851C 134.05444 723.78687 135.142 723.65686 135.70728 722.7627C 136.27899 721.8525 135.94048 720.8444 134.79703 720.1276C 131.97603 718.35443 128.88959 717.3625 125.4872 717.0165C 125.4872 716.4931 125.414116 716.0009 125.51083 715.55817C 125.57532 715.2841 125.873 714.94556 126.13952 714.8564C 127.703156 714.3406 129.29904 713.92145 130.86267 713.38947C 131.82988 713.0596 132.61224 712.4545 132.37796 711.2616C 132.14474 710.101 131.22592 709.94836 130.2254 709.95593C 125.85688 709.96344 121.496956 709.95593 117.127365 709.94836C 116.23216 709.94836 115.41864 710.08594 115.088715 711.06067C 114.76632 712.0032 115.18544 712.85 116.3708 713.30133C 118.136475 713.9698 119.973076 714.5103 121.883835 715.14655z" stroke="none" fill="#262A36" fill-rule="nonzero" />
    <path id=""  transform="matrix(1 0 0 -1 0 842)"  d="M132.8852 736.0241C 131.6762 735.4524 130.43497 735.0408 129.08841 734.99243C 127.9686 734.9516 126.9122 735.2589 125.90417 735.73395C 125.16264 736.08105 124.42865 736.45074 123.6796 736.78174C 122.28468 737.3943 120.9306 737.2492 119.624886 736.5077C 119.48733 736.4271 119.350845 736.3626 119.14129 736.24115L119.14129 736.24115L119.14129 736.77313C 119.14129 739.99713 119.17352 743.2211 119.12517 746.4365C 119.101524 747.8476 120.11708 748.5644 121.107925 748.7331C 122.52649 748.9835 123.75161 748.52356 124.904724 747.71C 126.06537 746.8965 127.32272 746.2592 128.74881 746.0497C 130.11148 745.8562 131.36024 746.28284 132.60149 746.7428C 132.80353 746.8159 133.00449 746.89545 133.24629 746.9846L133.24629 746.9846L133.24629 746.5408C 133.24629 743.2276 133.23877 739.923 133.25381 736.61084C 133.25381 736.31213 133.16568 736.152 132.88306 736.022zM118.199875 728.2543C 118.087036 727.4321 117.506714 727.0614 116.741554 727.3999C 116.53952 727.48804 116.40304 727.78674 116.31491 728.01245C 116.24184 728.18976 116.27408 728.41547 116.27408 728.625L116.27408 728.625L116.27408 737.9424L116.27408 737.9424L116.27408 747.17053C 116.27408 747.34784 116.27408 747.52515 116.2816 747.7025C 116.31384 748.24304 116.55564 748.5407 116.97476 748.5654C 117.788284 748.62244 118.03008 748.47736 118.16012 747.84863C 118.20095 747.6305 118.21707 747.4134 118.21707 747.19525L118.21707 747.19525L118.21707 728.73785C 118.21707 728.57666 118.21707 728.40796 118.20095 728.2543zM123.67208 753.8926C 115.03928 753.8926 108.04428 746.8965 108.04428 738.2648C 108.04428 729.63306 115.04036 722.63696 123.67208 722.63696C 132.3038 722.63696 139.29988 729.63306 139.29988 738.2648C 139.29988 746.8965 132.29628 753.8926 123.67208 753.8926z" stroke="none" fill="#262A36" fill-rule="nonzero" />
				</g>
			</g>
		</g>
	</g>
</g>
</svg>